<svg xmlns="http://www.w3.org/2000/svg" viewBox="0 0 96 96">
  <path d="M10.027344 1.6796875C9.7235938 1.6454219 9.4142969 1.8054688 9.2792969 2.1054688L8.6152344 3.5800781C8.5072344 3.8220781 8.2757187 3.9877656 8.0117188 4.0097656L6.4003906 4.1445312C5.9643906 4.1805312 5.6570938 4.5924844 5.7460938 5.0214844L6.0761719 6.6035156C6.1311719 6.8635156 6.0408437 7.1336406 5.8398438 7.3066406L4.6152344 8.3632812C4.2832344 8.6492812 4.2775625 9.1600781 4.6015625 9.4550781L5.8007812 10.542969C5.9967813 10.720969 6.0795312 10.992 6.0195312 11.25L5.6542969 12.824219C5.5542969 13.251219 5.8491563 13.668797 6.2851562 13.716797L7.8945312 13.892578C8.1575313 13.921578 8.3833281 14.089984 8.4863281 14.333984L9.1152344 15.826172C9.2852344 16.230172 9.7703906 16.393781 10.150391 16.175781L11.554688 15.373047C11.784688 15.241047 12.067922 15.245812 12.294922 15.382812L13.677734 16.21875C14.051734 16.44575 14.540703 16.294531 14.720703 15.894531L15.384766 14.419922C15.492766 14.177922 15.724281 14.012234 15.988281 13.990234L17.599609 13.855469C18.035609 13.819469 18.341906 13.407516 18.253906 12.978516L17.923828 11.396484C17.868828 11.136484 17.959156 10.866359 18.160156 10.693359L19.384766 9.6367188C19.715766 9.3507188 19.723437 8.8389219 19.398438 8.5449219L18.199219 7.4570312C18.003219 7.2790312 17.920469 7.008 17.980469 6.75L18.347656 5.1757812C18.447656 4.7487812 18.152797 4.3312031 17.716797 4.2832031L16.107422 4.1074219C15.844422 4.0784219 15.616672 3.9100156 15.513672 3.6660156L14.886719 2.1738281C14.716719 1.7698281 14.231563 1.6062188 13.851562 1.8242188L12.447266 2.6269531C12.217266 2.7589531 11.934031 2.7541875 11.707031 2.6171875L10.322266 1.78125C10.228766 1.7245 10.128594 1.6911094 10.027344 1.6796875 z M 17 15.912109L16.900391 15.921875L15.841797 18.277344C15.542797 18.941344 14.730422 19.193406 14.107422 18.816406L11.896484 17.478516L9.6542969 18.761719C9.0222969 19.123719 8.2185469 18.850687 7.9355469 18.179688L7 15.960938L7 21.982422C7 22.449422 7.4921562 22.753922 7.9101562 22.544922L12 20.5L16.089844 22.544922C16.507844 22.753922 17 22.449422 17 21.982422L17 15.912109 z" fill="#FE6150" />
</svg>