<svg xmlns="http://www.w3.org/2000/svg" xmlns:xlink="http://www.w3.org/1999/xlink" width="64" height="64" viewBox="0 0 64 64">
  <defs>
    <clipPath id="clip-path">
      <rect id="Rectangle_202" data-name="Rectangle 202" width="64" height="64" transform="translate(1064 232)" fill="#ff6150"/>
    </clipPath>
  </defs>
  <g id="Mask_Group_54" data-name="Mask Group 54" transform="translate(-1064 -232)" clip-path="url(#clip-path)">
    <path id="icons8_hand_with_pen_2" d="M56,4.8,4.8,56V68.8H17.6l6.438-6.437a15.842,15.842,0,0,1-2.869-6.181L14.95,62.4H11.2V58.65L21.506,48.344A15.924,15.924,0,0,1,32.344,37.506L56,13.85l3.75,3.75L40.55,36.8H49.6L68.8,17.6ZM26.1,11.2a12.791,12.791,0,0,0-9.05,3.75L7.062,24.938a7.055,7.055,0,0,0-.744,9.356,6.791,6.791,0,0,0,10.069.519L17.6,33.6V30.4H11.587a.39.39,0,0,1-.3-.138.984.984,0,0,1,.3-.8l9.988-9.987a6.393,6.393,0,0,1,2.719-1.619l11.4-.256,6.4-6.4ZM65.6,30.4,52.8,43.2h-16a9.6,9.6,0,1,0,0,19.2H65.6V56H36.8a3.2,3.2,0,0,1,0-6.4H55.45L65.6,39.494Z" transform="translate(1059.2 227.2)" fill="#ff6150"/>
  </g>
</svg>
