<svg xmlns="http://www.w3.org/2000/svg" xmlns:xlink="http://www.w3.org/1999/xlink" width="64" height="64" viewBox="0 0 64 64">
  <defs>
    <clipPath id="clip-path">
      <rect id="Rectangle_203" data-name="Rectangle 203" width="64" height="64" transform="translate(0 0.368)" fill="#ff6150"/>
    </clipPath>
  </defs>
  <g id="Mask_Group_55" data-name="Mask Group 55" transform="translate(0 -0.368)" clip-path="url(#clip-path)">
    <path id="icons8_theatre_mask_3" d="M37.632,2.228a2.971,2.971,0,0,0-1.364.279L3.945,17.546A2.971,2.971,0,0,0,2.5,21.48S9.518,36.706,12.544,43.064a9.967,9.967,0,0,0,5.506,4.7,39.714,39.714,0,0,0,3.116,6.852,78.1,78.1,0,0,0,5.819,8.807A2.971,2.971,0,0,0,29.1,64.555a78.009,78.009,0,0,0,10.6-.029,36.981,36.981,0,0,0,8.338-1.456c2.644-.846,5.243-2.119,6.644-4.793,1.6-3.064,4.41-8.3,6.806-12.765,1.2-2.232,2.295-4.275,3.092-5.756L65.523,38c.112-.208.2-.367.255-.476.029-.055.055-.095.07-.122s.015-.023.018-.029a.108.108,0,0,0,.006-.018,2.971,2.971,0,0,0-1.213-4.032L50.293,25.64c-.025-.057-.037-.111-.064-.168h-.006c-2.972-6.248-10-21.514-10-21.514a2.971,2.971,0,0,0-2.588-1.729ZM36.083,9.145c.87,1.887,3.34,7.184,5.506,11.842l-8.367-4.473a2.964,2.964,0,0,0-4.015,1.207S21.246,32.479,17.981,38.712a7.909,7.909,0,0,0-.441,1c-2.66-5.614-7.068-15.161-8.4-18.039ZM33.037,23.151,59.228,37.157c-.79,1.467-1.828,3.39-2.982,5.541-2.4,4.47-5.2,9.705-6.829,12.823a6.073,6.073,0,0,1-3.191,1.891A32.36,32.36,0,0,1,39.251,58.6a55.347,55.347,0,0,1-8.338.023,55.349,55.349,0,0,1-4.566-6.916,32.865,32.865,0,0,1-2.884-6.475,6.3,6.3,0,0,1-.22-3.766C26.053,36.1,31.468,26.063,33.037,23.151Zm3.655,9.092a2.971,2.971,0,1,0,2.971,2.971A2.971,2.971,0,0,0,36.693,32.243Zm10.484,5.6a2.971,2.971,0,1,0,2.971,2.971A2.971,2.971,0,0,0,47.177,37.847ZM32.492,43.075a5.942,5.942,0,1,0,10.478,5.6Z" transform="translate(-2.228 -1.597)" fill="#ff6150"/>
  </g>
</svg>
